<svg width="118" height="40" viewBox="0 0 118 40" fill="none" xmlns="http://www.w3.org/2000/svg">
<rect width="118" height="40" rx="16" fill="#172D9D"/>
<path d="M31.32 19.416H44.76V20.168C44.76 20.456 44.68 20.6587 44.52 20.776C44.36 20.8827 44.184 20.936 43.992 20.936H39.176V21.992C39.8267 22.0453 40.4133 22.1467 40.936 22.296C41.4693 22.4453 41.9173 22.632 42.28 22.856C42.6533 23.08 42.936 23.336 43.128 23.624C43.3307 23.912 43.432 24.232 43.432 24.584C43.432 24.9787 43.304 25.336 43.048 25.656C42.792 25.9867 42.4293 26.264 41.96 26.488C41.4907 26.7227 40.92 26.904 40.248 27.032C39.5867 27.16 38.8507 27.224 38.04 27.224C37.2187 27.224 36.4773 27.16 35.816 27.032C35.1547 26.904 34.5893 26.7227 34.12 26.488C33.6507 26.264 33.288 25.9867 33.032 25.656C32.776 25.336 32.648 24.9787 32.648 24.584C32.648 24.232 32.744 23.912 32.936 23.624C33.1387 23.336 33.4213 23.08 33.784 22.856C34.1573 22.632 34.6053 22.4453 35.128 22.296C35.6507 22.1467 36.2427 22.0453 36.904 21.992V20.936H31.32V19.416ZM43.56 17.864C43.528 18.1307 43.4267 18.3333 43.256 18.472C43.096 18.6 42.84 18.6533 42.488 18.632C42.104 18.6107 41.7093 18.5627 41.304 18.488C40.9093 18.4027 40.52 18.296 40.136 18.168C39.752 18.04 39.384 17.8853 39.032 17.704C38.6907 17.5227 38.3813 17.3147 38.104 17.08C37.8267 17.336 37.512 17.5707 37.16 17.784C36.8187 17.9867 36.4507 18.1627 36.056 18.312C35.672 18.4613 35.272 18.584 34.856 18.68C34.44 18.7653 34.024 18.8187 33.608 18.84C33.256 18.8613 32.9893 18.8187 32.808 18.712C32.6267 18.5947 32.5147 18.3813 32.472 18.072L32.344 17.384C33.784 17.3413 34.872 17.1227 35.608 16.728C36.344 16.3333 36.76 15.8693 36.856 15.336H32.888V13.896H36.888V12.68H39.16V13.896H43.192V15.336H39.192C39.3093 15.88 39.768 16.312 40.568 16.632C41.3787 16.952 42.4133 17.16 43.672 17.256L43.56 17.864ZM34.968 24.584C34.968 24.936 35.2453 25.208 35.8 25.4C36.3547 25.6027 37.1013 25.704 38.04 25.704C38.9787 25.704 39.7253 25.6027 40.28 25.4C40.8347 25.208 41.112 24.936 41.112 24.584C41.112 24.232 40.8347 23.96 40.28 23.768C39.7253 23.5653 38.9787 23.464 38.04 23.464C37.0907 23.464 36.3387 23.5653 35.784 23.768C35.24 23.96 34.968 24.232 34.968 24.584ZM45.8301 13.336H53.5741V14.888H50.7101V15.432V15.64V15.72C50.7101 16.616 50.9501 17.4107 51.4301 18.104C51.9208 18.7973 52.7528 19.3573 53.9261 19.784L53.6701 20.376C53.5635 20.6107 53.3928 20.776 53.1581 20.872C52.9341 20.9573 52.6515 20.936 52.3101 20.808C51.7981 20.6267 51.3181 20.3653 50.8701 20.024C50.4328 19.6827 50.0488 19.2773 49.7181 18.808C49.3555 19.3733 48.9288 19.8587 48.4381 20.264C47.9475 20.6587 47.4141 20.9467 46.8381 21.128C46.4968 21.2453 46.2195 21.2613 46.0061 21.176C45.7928 21.08 45.6275 20.9093 45.5101 20.664L45.2061 20.056C45.8781 19.864 46.4221 19.6133 46.8381 19.304C47.2648 18.9947 47.5955 18.648 47.8301 18.264C48.0755 17.88 48.2408 17.4747 48.3261 17.048C48.4115 16.6107 48.4541 16.168 48.4541 15.72V14.888H45.8301V13.336ZM53.0941 16.216H55.4141V13.096H58.2941V13.192C57.8675 13.3627 57.6541 13.7147 57.6541 14.248V21.976C57.6541 22.36 57.5421 22.648 57.3181 22.84C57.1048 23.0213 56.7581 23.112 56.2781 23.112H55.4141V17.736H53.0941V16.216ZM57.9741 25.464V25.848C57.9741 26.232 57.8621 26.5147 57.6381 26.696C57.4248 26.888 57.0781 26.984 56.5981 26.984H47.0461V22.312H49.3181V25.464H57.9741ZM63.7803 23.432C63.1189 23.432 62.5429 23.3413 62.0523 23.16C61.5616 22.9787 61.1509 22.7387 60.8203 22.44C60.5003 22.1307 60.2549 21.7733 60.0843 21.368C59.9243 20.9627 59.8443 20.5307 59.8443 20.072C59.8443 19.6133 59.9243 19.1813 60.0843 18.776C60.2549 18.3707 60.5003 18.0187 60.8203 17.72C61.1509 17.4107 61.5616 17.1653 62.0523 16.984C62.5536 16.8027 63.1349 16.712 63.7963 16.712C64.4576 16.712 65.0336 16.8027 65.5243 16.984C66.0256 17.1653 66.4363 17.4107 66.7563 17.72C67.0869 18.0187 67.3323 18.3707 67.4923 18.776C67.6629 19.1813 67.7483 19.6133 67.7483 20.072C67.7483 20.5307 67.6629 20.9627 67.4923 21.368C67.3323 21.7733 67.0869 22.1307 66.7563 22.44C66.4256 22.7387 66.0096 22.9787 65.5083 23.16C65.0176 23.3413 64.4416 23.432 63.7803 23.432ZM69.0123 13.096H71.8923V13.192C71.4656 13.3627 71.2523 13.7147 71.2523 14.248V17.48H73.0763V19.08H71.2523V25.928C71.2523 26.312 71.1403 26.5947 70.9163 26.776C70.7029 26.968 70.3563 27.064 69.8763 27.064H69.0123V13.096ZM59.5243 14.456H62.6763V12.616H64.9163V14.456H67.9083V15.976H59.5243V14.456ZM62.0843 20.072C62.0843 20.616 62.2229 21.0747 62.5003 21.448C62.7883 21.8107 63.2203 21.992 63.7963 21.992C64.3723 21.992 64.7989 21.8107 65.0763 21.448C65.3643 21.0747 65.5083 20.616 65.5083 20.072C65.5083 19.528 65.3643 19.0747 65.0763 18.712C64.7989 18.3387 64.3723 18.152 63.7963 18.152C63.2203 18.152 62.7883 18.3387 62.5003 18.712C62.2229 19.0747 62.0843 19.528 62.0843 20.072ZM83.5704 13.096H86.4504V13.192C86.0237 13.3627 85.8104 13.7147 85.8104 14.248V25.928C85.8104 26.312 85.6984 26.5947 85.4744 26.776C85.261 26.968 84.9144 27.064 84.4344 27.064H83.5704V13.096ZM73.7624 21.96C74.6157 21.672 75.3784 21.288 76.0504 20.808C76.7224 20.3173 77.2877 19.768 77.7464 19.16C78.2157 18.5413 78.5677 17.8853 78.8024 17.192C79.0477 16.4987 79.1704 15.8 79.1704 15.096H74.0664V13.496H81.4104V14.952C81.4104 15.7947 81.2504 16.632 80.9304 17.464C80.6104 18.296 80.1837 19.0693 79.6504 19.784C79.1277 20.488 78.525 21.1173 77.8424 21.672C77.1597 22.216 76.4557 22.6267 75.7304 22.904C75.325 23.064 74.9837 23.1333 74.7064 23.112C74.4397 23.08 74.221 22.8933 74.0504 22.552L73.7624 21.96Z" fill="white"/>
</svg>
