<svg width="21" height="11" viewBox="0 0 21 11" fill="none" xmlns="http://www.w3.org/2000/svg">
<path d="M9.08541 9.636C9.08541 9.924 9.00141 10.136 8.83341 10.272C8.67341 10.416 8.41341 10.488 8.05341 10.488H1.35741V6.624H9.08541V9.636ZM3.06141 9.348H7.38141V7.764H3.06141V9.348ZM0.181406 4.62H10.2614V5.244C10.2614 5.46 10.2014 5.612 10.0814 5.7C9.96141 5.78 9.82941 5.82 9.68541 5.82H0.181406V4.62ZM1.35741 0.252H9.08541V3.072C9.08541 3.36 9.00141 3.576 8.83341 3.72C8.67341 3.856 8.41341 3.924 8.05341 3.924H7.38141V1.452H1.35741V0.252ZM10.884 3.216C10.884 2.776 10.96 2.376 11.112 2.016C11.264 1.648 11.472 1.336 11.736 1.08C12 0.816 12.312 0.612 12.672 0.468C13.032 0.324 13.424 0.252 13.848 0.252C14.352 0.252 14.808 0.356 15.216 0.564C15.632 0.764 15.976 1.044 16.248 1.404H18.252V0.0719998H20.412V0.144C20.092 0.271999 19.932 0.535999 19.932 0.935999V6.732C19.932 7.02 19.848 7.236 19.68 7.38C19.52 7.516 19.26 7.584 18.9 7.584H18.252V4.764H16.416C16.16 5.212 15.808 5.56 15.36 5.808C14.912 6.056 14.408 6.18 13.848 6.18C13.424 6.18 13.032 6.108 12.672 5.964C12.312 5.82 12 5.62 11.736 5.364C11.472 5.1 11.264 4.788 11.112 4.428C10.96 4.06 10.884 3.656 10.884 3.216ZM20.172 9.348V9.636C20.172 9.924 20.088 10.136 19.92 10.272C19.76 10.416 19.5 10.488 19.14 10.488H11.976V6.984H13.68V9.348H20.172ZM12.564 3.216C12.564 3.52 12.596 3.788 12.66 4.02C12.732 4.252 12.824 4.448 12.936 4.608C13.056 4.768 13.192 4.892 13.344 4.98C13.504 5.06 13.672 5.1 13.848 5.1C14.024 5.1 14.188 5.06 14.34 4.98C14.5 4.892 14.636 4.768 14.748 4.608C14.868 4.448 14.96 4.252 15.024 4.02C15.096 3.788 15.132 3.52 15.132 3.216C15.132 2.92 15.096 2.656 15.024 2.424C14.96 2.184 14.868 1.984 14.748 1.824C14.636 1.664 14.5 1.544 14.34 1.464C14.188 1.376 14.024 1.332 13.848 1.332C13.672 1.332 13.504 1.376 13.344 1.464C13.192 1.544 13.056 1.664 12.936 1.824C12.824 1.984 12.732 2.184 12.66 2.424C12.596 2.656 12.564 2.92 12.564 3.216ZM16.812 3.216C16.812 3.376 16.8 3.528 16.776 3.672H18.252V2.496H16.728C16.752 2.608 16.772 2.724 16.788 2.844C16.804 2.964 16.812 3.088 16.812 3.216Z" fill="white"/>
</svg>
