<svg width="118" height="40" viewBox="0 0 118 40" fill="none" xmlns="http://www.w3.org/2000/svg">
<rect width="118" height="40" rx="16" fill="#172D9D"/>
<path d="M30.664 24.184C30.664 23.7467 30.7867 23.3467 31.032 22.984C31.2773 22.6107 31.6293 22.2907 32.088 22.024C32.5573 21.7467 33.1173 21.5333 33.768 21.384C34.4187 21.224 35.1547 21.144 35.976 21.144C36.7867 21.144 37.5173 21.224 38.168 21.384C38.8293 21.5333 39.3893 21.7467 39.848 22.024C40.3173 22.2907 40.6747 22.6107 40.92 22.984C41.1653 23.3467 41.288 23.7467 41.288 24.184C41.288 24.6213 41.1653 25.0213 40.92 25.384C40.6747 25.7573 40.3173 26.0773 39.848 26.344C39.3893 26.6213 38.8293 26.8347 38.168 26.984C37.5173 27.144 36.7867 27.224 35.976 27.224C35.1547 27.224 34.4187 27.144 33.768 26.984C33.1173 26.8347 32.5573 26.6213 32.088 26.344C31.6293 26.0773 31.2773 25.7573 31.032 25.384C30.7867 25.0213 30.664 24.6213 30.664 24.184ZM37.8 19.816C37.704 20.0507 37.5547 20.2107 37.352 20.296C37.1493 20.3707 36.8773 20.3547 36.536 20.248C35.992 20.0773 35.48 19.8107 35 19.448C34.5307 19.0747 34.1147 18.632 33.752 18.12C33.3787 18.7493 32.9307 19.2933 32.408 19.752C31.896 20.2107 31.3467 20.5307 30.76 20.712C30.4187 20.8187 30.1413 20.8293 29.928 20.744C29.7147 20.6587 29.5493 20.4933 29.432 20.248L29.128 19.64C29.7893 19.448 30.3333 19.176 30.76 18.824C31.1973 18.472 31.544 18.0827 31.8 17.656C32.056 17.2293 32.232 16.7813 32.328 16.312C32.4347 15.832 32.488 15.368 32.488 14.92V13.176H34.744V14.632V14.84V14.92C34.744 15.368 34.8027 15.8053 34.92 16.232C35.0373 16.6587 35.2293 17.0587 35.496 17.432C35.7627 17.7947 36.104 18.1253 36.52 18.424C36.9467 18.7227 37.464 18.968 38.072 19.16L37.8 19.816ZM38.856 13.096H41.736V13.192C41.3093 13.3627 41.096 13.7147 41.096 14.248V16.008H42.92V17.528H41.096V19.864C41.096 20.248 40.984 20.536 40.76 20.728C40.5467 20.9093 40.2 21 39.72 21H38.856V13.096ZM32.904 24.184C32.904 24.3973 32.9733 24.6053 33.112 24.808C33.2613 25 33.4693 25.1653 33.736 25.304C34.0027 25.4533 34.3227 25.5707 34.696 25.656C35.08 25.7413 35.5067 25.784 35.976 25.784C36.4453 25.784 36.8667 25.7413 37.24 25.656C37.624 25.5707 37.9493 25.4533 38.216 25.304C38.4827 25.1653 38.6853 25 38.824 24.808C38.9733 24.6053 39.048 24.3973 39.048 24.184C39.048 23.9707 38.9733 23.768 38.824 23.576C38.6853 23.3733 38.4827 23.2027 38.216 23.064C37.9493 22.9147 37.624 22.7973 37.24 22.712C36.8667 22.6267 36.4453 22.584 35.976 22.584C35.5067 22.584 35.08 22.6267 34.696 22.712C34.3227 22.7973 34.0027 22.9147 33.736 23.064C33.4693 23.2027 33.2613 23.3733 33.112 23.576C32.9733 23.768 32.904 23.9707 32.904 24.184ZM43.3981 19.496H56.8381V20.248C56.8381 20.536 56.7581 20.7387 56.5981 20.856C56.4381 20.9627 56.2621 21.016 56.0701 21.016H51.2541V22.152H55.2701V25.848C55.2701 26.232 55.1581 26.5147 54.9341 26.696C54.7208 26.888 54.3741 26.984 53.8941 26.984H44.9661V22.152H48.9821V21.016H43.3981V19.496ZM44.7261 17.112H46.5661V14.856H44.8061V13.336H55.4301V14.856H53.6701V17.112H55.5101V17.864C55.5101 18.152 55.4301 18.3547 55.2701 18.472C55.1101 18.5787 54.9341 18.632 54.7421 18.632H44.7261V17.112ZM47.2381 25.464H52.9981V23.672H47.2381V25.464ZM48.8381 17.112H51.3981V14.856H48.8381V17.112ZM61.695 20.776H75.135V21.608C75.135 21.896 75.055 22.0987 74.895 22.216C74.735 22.3227 74.559 22.376 74.367 22.376H69.551V26.088C69.551 26.472 69.439 26.7547 69.215 26.936C69.0017 27.128 68.655 27.224 68.175 27.224H67.279V22.376H61.695V20.776ZM63.263 13.336H73.407V18.84C73.407 19.224 73.295 19.512 73.071 19.704C72.8577 19.8853 72.511 19.976 72.031 19.976H71.135V14.936H63.263V13.336ZM82.4291 21.816C82.4291 22.2 82.3171 22.488 82.0931 22.68C81.8798 22.8613 81.5331 22.952 81.0531 22.952H76.2851V13.496H82.4291V21.816ZM83.4851 13.096H85.4371V17.16H86.3971V13.096H88.9891V13.192C88.5625 13.3627 88.3491 13.7147 88.3491 14.248V25.928C88.3491 26.312 88.2371 26.5947 88.0131 26.776C87.7998 26.968 87.4531 27.064 86.9731 27.064H86.3971V18.76H85.4371V27.064H83.4851V13.096ZM78.2371 21.4H80.4771V15.048H78.2371V21.4Z" fill="white"/>
</svg>
